HIERARCHY
ROOT Hips
{
	OFFSET	0.00	0.00	0.00
	CHANNELS 6 Xposition Yposition Zposition Zrotation Xrotation Yrotation
	JOINT LeftUpLeg
	{
		OFFSET	 0.126116	-0.014019	-0.065224
		CHANNELS 3 Zrotation Xrotation Yrotation
		JOINT LeftLeg
		{
			OFFSET	 0.000000	 0.000000	 0.569914
			CHANNELS 3 Zrotation Xrotation Yrotation
			JOINT LeftFoot
			{
				OFFSET	 0.000000	 0.000000	 0.544423
				CHANNELS 3 Zrotation Xrotation Yrotation
				JOINT LeftToeBase
				{
					OFFSET	 0.000000	 0.000000	 0.207117
					CHANNELS 3 Zrotation Xrotation Yrotation
					End Site
					{
						OFFSET	 0.000000	 0.000000	 0.207117
					}
				}
			}
		}
	}
	JOINT RightUpLeg
	{
		OFFSET	-0.124023	-0.008373	-0.065224
		CHANNELS 3 Zrotation Xrotation Yrotation
		JOINT RightLeg
		{
			OFFSET	 0.000000	 0.000000	 0.570047
			CHANNELS 3 Zrotation Xrotation Yrotation
			JOINT RightFoot
			{
				OFFSET	 0.000000	 0.000000	 0.544354
				CHANNELS 3 Zrotation Xrotation Yrotation
				JOINT RightToeBase
				{
					OFFSET	 0.000000	 0.000000	 0.207540
					CHANNELS 3 Zrotation Xrotation Yrotation
					End Site
					{
						OFFSET	 0.000000	 0.000000	 0.207540
					}
				}
			}
		}
	}
	JOINT Spine
	{
		OFFSET	 0.000184	-0.007763	 0.117403
		CHANNELS 3 Zrotation Xrotation Yrotation
		JOINT Spine1
		{
			OFFSET	 0.000000	 0.000000	 0.137269
			CHANNELS 3 Zrotation Xrotation Yrotation
			JOINT Spine2
			{
				OFFSET	 0.000000	 0.000000	 0.156879
				CHANNELS 3 Zrotation Xrotation Yrotation
				JOINT LeftShoulder
				{
					OFFSET	 0.080501	-0.002496	 0.160144
					CHANNELS 3 Zrotation Xrotation Yrotation
					JOINT LeftArm
					{
						OFFSET	 0.000000	 0.000000	 0.164363
						CHANNELS 3 Zrotation Xrotation Yrotation
						JOINT LeftForeArm
						{
							OFFSET	 0.000000	 0.000000	 0.364576
							CHANNELS 3 Zrotation Xrotation Yrotation
							JOINT LeftHand
							{
								OFFSET	 0.000000	 0.000000	 0.360812
								CHANNELS 3 Zrotation Xrotation Yrotation
								JOINT LeftHandIndex1
								{
									OFFSET	 0.000000	 0.000000	 0.086006
									CHANNELS 3 Zrotation Xrotation Yrotation
									JOINT LeftHandIndex2
									{
										OFFSET	 0.000000	 0.000000	 0.047236
										CHANNELS 3 Zrotation Xrotation Yrotation
										JOINT LeftHandIndex3
										{
											OFFSET	-0.004284	-0.000551	 0.038166
											CHANNELS 3 Zrotation Xrotation Yrotation
											End Site
											{
												OFFSET	-0.004284	-0.000551	 0.038166
											}
										}
									}
								}
							}
						}
					}
				}
				JOINT Neck
				{
					OFFSET	 0.000000	 0.000000	 0.176489
					CHANNELS 3 Zrotation Xrotation Yrotation
					JOINT Head
					{
						OFFSET	 0.000000	-0.001747	 0.077940
						CHANNELS 3 Zrotation Xrotation Yrotation
						End Site
						{
							OFFSET	 0.000000	-0.001747	 0.077940
						}
					}
				}
				JOINT RightShoulder
				{
					OFFSET	-0.080363	 0.000306	 0.159706
					CHANNELS 3 Zrotation Xrotation Yrotation
					JOINT RightArm
					{
						OFFSET	 0.000000	 0.000000	 0.164196
						CHANNELS 3 Zrotation Xrotation Yrotation
						JOINT RightForeArm
						{
							OFFSET	 0.000000	 0.000000	 0.365611
							CHANNELS 3 Zrotation Xrotation Yrotation
							JOINT RightHand
							{
								OFFSET	 0.000000	 0.000000	 0.360648
								CHANNELS 3 Zrotation Xrotation Yrotation
								JOINT RightHandIndex1
								{
									OFFSET	 0.000000	 0.000000	 0.069977
									CHANNELS 3 Zrotation Xrotation Yrotation
									JOINT RightHandIndex2
									{
										OFFSET	 0.000000	 0.000000	 0.052305
										CHANNELS 3 Zrotation Xrotation Yrotation
										JOINT RightHandIndex3
										{
											OFFSET	 0.009002	-0.000782	 0.042196
											CHANNELS 3 Zrotation Xrotation Yrotation
											End Site
											{
												OFFSET	 0.009002	-0.000782	 0.042196
											}
										}
									}
								}
							}
						}
					}
				}
			}
		}
	}
}
MOTION
Frames:    13
Frame Time: 0.03333334
-20.139510	-44.406150	 0.759192	-47.886550	 17.269840	 3.758660	 3.488979	-34.885250	 175.325900	-1.213301	-43.113850	-0.276905	-0.706333	 80.807090	 0.547066	-2.351753	 34.240270	-0.130741	-0.730600	-36.102590	-179.529600	-3.016561	-43.170100	-0.974876	-1.600488	 81.008590	 0.475847	 2.406749	 19.755270	-0.177959	 18.963530	 15.110850	 1.324555	 0.722122	 1.876359	-1.839671	 0.198213	-3.849521	 0.019724	-125.733800	 89.281540	-141.830600	 54.630190	 65.806400	-61.382390	 4.347963	-13.010120	-37.205160	 13.953270	-31.488860	 3.533859	-5.697520	-12.283810	-1.403388	-5.213516	-0.193813	 3.566525	-1.378229	 35.397820	-2.634230	 0.813587	 0.157833	-3.819481	 0.089005	-6.676978	 1.271717	 93.697800	 85.941800	 172.006600	-61.733610	 74.589580	 71.368640	-16.322780	-28.567870	 42.938120	-37.691730	-33.515290	 0.985324	-9.965657	-10.120610	-38.955290	 5.070815	-0.697434	-9.399699	-2.350882	 35.473990	 5.254307
-20.150640	-44.420870	 0.759993	-47.723380	 18.097060	 3.800448	 3.592761	-34.961740	 175.573900	-1.962669	-43.206960	-0.736812	-0.981487	 81.686270	 0.267628	-2.351729	 34.243810	-0.130819	-0.768732	-35.715720	-179.412000	-2.616804	-42.565790	-0.731718	-1.558407	 82.428790	 0.788892	 2.405627	 20.833050	-0.156518	 11.939390	 14.707030	 1.102980	 0.752787	 1.491286	-1.953315	 0.106347	-4.325091	 0.011021	-123.867000	 89.240240	-143.651600	 59.972740	 67.302770	-63.238610	 7.631119	-14.647480	-36.855720	 18.863920	-34.058130	 6.713952	-5.206580	-11.766550	-0.303897	-5.213516	-0.193813	 3.566525	-1.378229	 35.397820	-2.634230	 0.737126	-0.132734	-3.619296	-0.013852	-7.337879	 1.308090	 93.666850	 85.990000	 172.142000	-54.968850	 77.673420	 62.106000	-20.937830	-26.815410	 37.174190	-44.046020	-36.309810	-2.229160	-9.340703	-8.866087	-38.388110	 5.070815	-0.697434	-9.399699	-2.350882	 35.473990	 5.254307
-20.161080	-44.434040	 0.760201	-48.026830	 18.708280	 3.890731	 3.543973	-34.946780	 175.637800	-2.098418	-43.648800	-0.878305	-1.085140	 82.383930	 0.202073	-2.341227	 35.579440	-0.162889	-0.733791	-35.249780	-179.526500	-2.288112	-42.231950	-0.490693	-1.444913	 83.236650	 0.994582	 2.404744	 21.478970	-0.143583	 4.123471	 14.363530	 0.994571	 0.944806	 1.048126	-1.882914	 0.096341	-4.841983	 0.010415	-118.413000	 89.091510	-148.999900	 64.067860	 68.477200	-64.528820	 10.583540	-16.182040	-36.700740	 23.633890	-34.595230	 9.328397	-4.294171	-10.881560	 1.793695	-5.213516	-0.193813	 3.566525	-1.378229	 35.397820	-2.634230	 0.791749	-0.499507	-3.377407	-0.111374	-8.001659	 1.221221	 93.794300	 86.168140	 172.154200	-42.722880	 79.961050	 47.271310	-23.908110	-26.319180	 34.642450	-49.972580	-37.070590	-5.050323	-8.866297	-7.795791	-38.025510	 5.070815	-0.697434	-9.399699	-2.350882	 35.473990	 5.254307
-20.169010	-44.444460	 0.761705	-48.495340	 19.226000	 3.947913	 3.574083	-34.796220	 175.733900	-2.340592	-43.637550	-1.032600	-1.180598	 82.486260	 0.125505	-2.332395	 36.605370	-0.188106	-0.785630	-35.350170	-179.500600	-2.483552	-42.131400	-0.653683	-1.577237	 83.372380	 0.953590	 2.404591	 21.579210	-0.141575	-3.776263	 14.064280	 0.824795	 1.094435	 0.781230	-1.628103	 0.195785	-5.149676	 0.021686	-111.198100	 88.813200	-156.227300	 66.284540	 69.452980	-64.960830	 12.127240	-17.293640	-36.759130	 26.894500	-33.050070	 10.507370	-3.962169	-10.657890	 2.573625	-5.213516	-0.193813	 3.566525	-1.378229	 35.397820	-2.634230	 0.904815	-0.613798	-3.043798	-0.067732	-8.493684	 1.448281	 94.282850	 86.500950	 171.730600	-32.019620	 80.743580	 34.732170	-25.423380	-26.471490	 34.000490	-53.829580	-35.689280	-6.497471	-8.708001	-7.576039	-37.804360	 5.070815	-0.697434	-9.399699	-2.350882	 35.473990	 5.254307
-20.175490	-44.452290	 0.763882	-48.919040	 19.652700	 3.890981	 3.574237	-34.705970	 175.777600	-2.638824	-43.409400	-1.229872	-1.269881	 82.255800	-0.000619	-2.325744	 37.330690	-0.206257	-0.857613	-35.355930	-179.306100	-2.751773	-42.022920	-0.878704	-1.760431	 83.399340	 0.886399	 2.404511	 21.633760	-0.140479	-11.149660	 13.833800	 0.824350	 1.182348	 0.659798	-1.417710	 0.313627	-5.282015	 0.035097	-107.995700	 88.628690	-159.476700	 67.356990	 69.933710	-65.346660	 13.741250	-18.199980	-36.673490	 29.701770	-29.931670	 10.149710	-3.859808	-10.953860	 2.816007	-5.213516	-0.193813	 3.566525	-1.378229	 35.397820	-2.634230	 0.977624	-0.792274	-2.704287	 0.035700	-8.567513	 1.693235	 94.770740	 86.739430	 171.228700	-25.855830	 80.789430	 27.401640	-26.566370	-27.079190	 34.066890	-56.480510	-32.672230	-6.387269	-8.630573	-7.658679	-37.561260	 5.070815	-0.697434	-9.399699	-2.350882	 35.473990	 5.254307
-20.182230	-44.458820	 0.765713	-49.167830	 19.905880	 3.865084	 3.568804	-34.333070	 175.803800	-2.685311	-43.125400	-1.258507	-1.315422	 82.202980	-0.003692	-2.320746	 37.851320	-0.219458	-0.761696	-35.190490	-179.232300	-2.961679	-41.670180	-0.969246	-1.824356	 83.447810	 0.848762	 2.404793	 21.447150	-0.144227	-18.479340	 13.531060	 0.849207	 1.237541	 0.585450	-1.312235	 0.409030	-5.352173	 0.046025	-106.895600	 88.572750	-160.671500	 67.462380	 70.054240	-65.328820	 14.396740	-18.768260	-36.877570	 31.234770	-25.156220	 8.277971	-4.146365	-11.090420	 2.144329	-5.213516	-0.193813	 3.566525	-1.378229	 35.397820	-2.634230	 1.049980	-0.784378	-2.537360	 0.130898	-8.707705	 1.834282	 94.906230	 86.825710	 171.131500	-22.624730	 80.574170	 23.378230	-27.044540	-27.666240	 34.438300	-58.057530	-27.972710	-4.753745	-8.555946	-7.765939	-37.308160	 5.070815	-0.697434	-9.399699	-2.350882	 35.473990	 5.254307
-20.189800	-44.463940	 0.767372	-48.944090	 20.014920	 3.823314	 3.502277	-34.029170	 175.747300	-2.470729	-42.878770	-1.143089	-1.314457	 82.301960	 0.099556	-2.316678	 38.260830	-0.229954	-0.693702	-34.349200	-179.302900	-2.777965	-40.837650	-0.812351	-1.654481	 83.637700	 0.866258	 2.405154	 21.195170	-0.149284	-25.731760	 13.197620	 0.846900	 1.146629	 0.485452	-1.354186	 0.475915	-5.400457	 0.053749	-107.136600	 88.616200	-160.513300	 66.334470	 69.983830	-64.591850	 13.518440	-19.045520	-37.789630	 31.490490	-18.532070	 4.804712	-4.333631	-11.468940	 1.713058	-5.213516	-0.193813	 3.566525	-1.378229	 35.397820	-2.634230	 1.066115	-0.791687	-2.528746	 0.266880	-8.782859	 1.849192	 94.911580	 86.784780	 171.056000	-22.416870	 80.338160	 23.063150	-26.996650	-27.877790	 34.695990	-59.064420	-21.419950	-1.516132	-8.504663	-7.875834	-37.109570	 5.070815	-0.697434	-9.399699	-2.350882	 35.473990	 5.254307
-20.196110	-44.466840	 0.768518	-48.741280	 19.959480	 3.836849	 3.289339	-33.741830	 175.528200	-2.224302	-42.769090	-1.095225	-1.319734	 82.371960	 0.146571	-2.315947	 38.333350	-0.231822	-0.765194	-33.678070	-179.500500	-2.601526	-40.177870	-0.738756	-1.716823	 83.710820	 1.026066	 2.405435	 20.981610	-0.153544	-31.291740	 12.965100	 0.878756	 1.071899	 0.347864	-1.422951	 0.478906	-5.419896	 0.054167	-108.326600	 88.703510	-159.329400	 64.229090	 69.910090	-63.597680	 12.113540	-18.887970	-38.432240	 31.737990	-11.346450	 0.614938	-4.868607	-12.763360	 0.519479	-5.213516	-0.193813	 3.566525	-1.378229	 35.397820	-2.634230	 1.051871	-0.860382	-2.599009	 0.307176	-8.735875	 1.782191	 94.732400	 86.679880	 171.201000	-24.036010	 80.248950	 25.205560	-26.300990	-27.657040	 34.764100	-59.707280	-14.288070	 2.512994	-8.541790	-7.914461	-37.171170	 5.070815	-0.697434	-9.399699	-2.350882	 35.473990	 5.254307
-20.201530	-44.469180	 0.769235	-48.855950	 19.865080	 3.822700	 3.206938	-33.066090	 175.427100	-2.280991	-42.431230	-1.178275	-1.386423	 82.311880	 0.099846	-2.315413	 38.386350	-0.233186	-0.823948	-33.225540	-179.524400	-2.692006	-39.741970	-0.831456	-1.801029	 83.873790	 1.008533	 2.405562	 20.885130	-0.155480	-35.123480	 12.685690	 1.042781	 1.110899	 0.279800	-1.412215	 0.464335	-5.388412	 0.052392	-109.851400	 88.790660	-157.776700	 61.507010	 69.789760	-62.162550	 10.030850	-18.149620	-38.824210	 31.671990	-3.839945	-3.937370	-5.841926	-14.283860	-1.585398	-5.213516	-0.193813	 3.566525	-1.378229	 35.397820	-2.634230	 1.064003	-0.906139	-2.665819	 0.266104	-8.617058	 1.679706	 94.544230	 86.603730	 171.415700	-28.573880	 79.968260	 30.355500	-25.479000	-27.079490	 34.731220	-60.157920	-6.834750	 6.963652	-8.566288	-7.956122	-37.200550	 5.070815	-0.697434	-9.399699	-2.350882	 35.473990	 5.254307
-20.206760	-44.470790	 0.769675	-48.824680	 19.760450	 3.734322	 3.182363	-32.274800	 175.360200	-2.289962	-41.925670	-1.190534	-1.440167	 82.278060	 0.103841	-2.314594	 38.466860	-0.235268	-0.894805	-32.626500	-179.560900	-2.699428	-39.444400	-0.874355	-1.845326	 84.058420	 1.010721	 2.405684	 20.787600	-0.157424	-37.361900	 12.413080	 1.204449	 1.118953	 0.216881	-1.411548	 0.484123	-5.372828	 0.054560	-111.151200	 88.864950	-156.491700	 59.004130	 69.531360	-60.735750	 7.520003	-16.840950	-39.104030	 31.353860	 3.889488	-8.643007	-6.483241	-15.626340	-2.885408	-5.213516	-0.193813	 3.566525	-1.378229	 35.397820	-2.634230	 1.093577	-0.837612	-2.809739	 0.303845	-8.644216	 1.890378	 94.427380	 86.549460	 171.542000	-35.137090	 79.398280	 37.666520	-24.310850	-26.166100	 34.652670	-60.428490	 0.833696	 11.623860	-8.527512	-8.034336	-37.054400	 5.070815	-0.697434	-9.399699	-2.350882	 35.473990	 5.254307
-20.211280	-44.471640	 0.769683	-48.558430	 19.639280	 3.617610	 3.174474	-31.640010	 175.290300	-2.165483	-41.508940	-1.105626	-1.451692	 82.343250	 0.178135	-2.313373	 38.586010	-0.238351	-0.996111	-31.923940	-179.595200	-2.537361	-39.240350	-0.824898	-1.798253	 84.240920	 1.034557	 2.405700	 20.770830	-0.157762	-37.694190	 12.160720	 1.273174	 1.092793	 0.199962	-1.423384	 0.506569	-5.361792	 0.057042	-112.404400	 88.942230	-155.313400	 57.332410	 69.139760	-60.037530	 5.363122	-15.204050	-38.927830	 31.243230	 10.766230	-12.683550	-6.709278	-16.045520	-3.335825	-5.213516	-0.193813	 3.566525	-1.378229	 35.397820	-2.634230	 1.106791	-0.694480	-2.884175	 0.359836	-8.760879	 2.073417	 94.334650	 86.521430	 171.667300	-40.695680	 78.682690	 43.874810	-22.291890	-24.962380	 34.672880	-60.062250	 7.664373	 15.684900	-8.589552	-8.351712	-36.983600	 5.070815	-0.697434	-9.399699	-2.350882	 35.473990	 5.254307
-20.216440	-44.472350	 0.768562	-48.218230	 19.295520	 3.592542	 3.196043	-30.853010	 175.245100	-2.175647	-41.274780	-1.106890	-1.505582	 82.541730	 0.201920	-2.311707	 38.747560	-0.242547	-1.079134	-30.974720	-179.786100	-2.287804	-39.002640	-0.712099	-1.698125	 84.591510	 1.094770	 2.405410	 21.003490	-0.153113	-35.423450	 11.822440	 1.196483	 1.112934	 0.191804	-1.473973	 0.537435	-5.306513	 0.060258	-114.122200	 89.018220	-153.619600	 56.359660	 68.524610	-60.172850	 2.767293	-12.614180	-37.813080	 30.638110	 17.870660	-16.340240	-6.599470	-16.006510	-3.102407	-5.213516	-0.193813	 3.566525	-1.378229	 35.397820	-2.634230	 1.147431	-0.583148	-2.918285	 0.386863	-8.754708	 2.147375	 94.268290	 86.513560	 171.776500	-45.896770	 77.736190	 49.805210	-19.534480	-22.971680	 34.126740	-59.219590	 14.761590	 19.447360	-8.749670	-8.902142	-36.986320	 5.070815	-0.697434	-9.399699	-2.350882	 35.473990	 5.254307
-20.219720	-44.472640	 0.767150	-48.111190	 18.991150	 3.641418	 3.221494	-30.324900	 175.181600	-2.356177	-41.145260	-1.217716	-1.597134	 82.764430	 0.140715	-2.309914	 38.918130	-0.246998	-1.195071	-30.333530	-179.922900	-2.157966	-38.789280	-0.695214	-1.682907	 84.904270	 1.119283	 2.405582	 20.866640	-0.155850	-32.130100	 11.532250	 1.139282	 1.154545	 0.174582	-1.516322	 0.556403	-5.261495	 0.062169	-114.946100	 89.053740	-152.821000	 56.062200	 68.222920	-60.306200	 0.888177	-10.614350	-36.559170	 29.587280	 21.509660	-17.596680	-6.477920	-15.831010	-2.855455	-5.213516	-0.193813	 3.566525	-1.378229	 35.397820	-2.634230	 1.184263	-0.474872	-2.890825	 0.380050	-8.767579	 2.067213	 94.207620	 86.526110	 171.906300	-48.309730	 77.158910	 52.695740	-17.293800	-21.263130	 33.281110	-57.930650	 18.436960	 20.826870	-8.791343	-8.994123	-37.021690	 5.070815	-0.697434	-9.399699	-2.350882	 35.473990	 5.254307
